<?xml version="1.0" encoding="UTF-8"?>
<svg width="132px" height="28px" viewBox="0 0 132 28" version="1.1" xmlns="http://www.w3.org/2000/svg" xmlns:xlink="http://www.w3.org/1999/xlink">
    <!-- Generator: Sketch 57.1 (83088) - https://sketch.com -->
    <title>Group 5</title>
    <desc>Created with Sketch.</desc>
    <defs>
        <linearGradient x1="-0.0598541918%" y1="49.9999405%" x2="100.080886%" y2="49.9999405%" id="linearGradient-1">
            <stop stop-color="#FF9200" offset="0%"></stop>
            <stop stop-color="#F36D00" offset="29%"></stop>
            <stop stop-color="#F4680B" offset="32%"></stop>
            <stop stop-color="#F83C72" offset="57%"></stop>
            <stop stop-color="#FC1CBE" offset="78%"></stop>
            <stop stop-color="#FE08ED" offset="93%"></stop>
            <stop stop-color="#FF00FF" offset="100%"></stop>
        </linearGradient>
    </defs>
    <g id="Page-1" stroke="none" stroke-width="1" fill="none" fill-rule="evenodd">
        <g id="1440-copy-10" transform="translate(-131.000000, -35.000000)" fill-rule="nonzero">
            <g id="Group-5" transform="translate(131.000000, 35.000000)">
                <polygon id="Path" fill="#FFFFFF" points="45.6523259 3.34360889 48.9476765 3.34360889 48.9476765 19.1998984 54.6283646 19.1998984 54.6283646 22.3297921 45.6661139 22.3297921"></polygon>
                <path d="M62.2600657,8.10049575 C64.0057062,8.0786698 65.6611038,8.87448495 66.7342969,10.2514359 L66.7342969,8.38315135 L69.8090383,8.38315135 L69.8090383,22.3573683 L66.7342969,22.3573683 L66.7342969,20.4890837 C65.6611038,21.8660347 64.0057062,22.6618498 62.2600657,22.6400239 C58.42698,22.6400239 55.5176956,19.3653554 55.5176956,15.3668128 C55.5176956,11.3682702 58.42698,8.10049575 62.2600657,8.10049575 Z M62.8184828,10.8994756 C60.3297348,10.8994756 58.6820595,12.8573826 58.6820595,15.3668128 C58.6820595,17.876243 60.3573109,19.8410441 62.8184828,19.8410441 C65.2796547,19.8410441 66.9549062,17.883137 66.9549062,15.3668128 C66.9549062,12.8504886 65.3072309,10.8994756 62.8184828,10.8994756 Z" id="Shape" fill="#FFFFFF"></path>
                <polygon id="Path" fill="#FFFFFF" points="72.2012698 19.9306666 79.5296332 11.1752371 72.3115744 11.1752371 72.3115744 8.38315135 83.5005996 8.38315135 83.5005996 10.8443233 76.1998124 19.5652825 83.6660566 19.5652825 83.6660566 22.3573683 72.2012698 22.3573683"></polygon>
                <path d="M91.4838967,8.10049575 C93.2295373,8.0786698 94.8849349,8.87448495 95.958128,10.2514359 L95.958128,8.38315135 L99.0328694,8.38315135 L99.0328694,22.3573683 L95.958128,22.3573683 L95.958128,20.4890837 C94.8849349,21.8660347 93.2295373,22.6618498 91.4838967,22.6400239 C87.6508111,22.6400239 84.7484207,19.3653554 84.7484207,15.3668128 C84.7484207,11.3682702 87.6508111,8.10049575 91.4838967,8.10049575 Z M92.0423139,10.8994756 C89.5535658,10.8994756 87.9058905,12.8573826 87.9058905,15.3668128 C87.9058905,17.876243 89.581142,19.8410441 92.0423139,19.8410441 C94.5034858,19.8410441 96.1787372,17.883137 96.1787372,15.3668128 C96.1787372,12.8504886 94.5310619,10.8994756 92.0423139,10.8994756 Z" id="Shape" fill="#FFFFFF"></path>
                <path d="M107.815875,8.10049575 C109.559817,8.07761074 111.213566,8.87385993 112.283212,10.2514359 L112.283212,2.21988054 L115.357954,2.21988054 L115.357954,22.3573683 L112.283212,22.3573683 L112.283212,20.4890837 C111.213566,21.8666597 109.559817,22.6629089 107.815875,22.6400239 C103.982789,22.6400239 101.073505,19.3653554 101.073505,15.3668128 C101.073505,11.3682702 103.982789,8.10049575 107.815875,8.10049575 Z M108.374292,10.8994756 C105.885544,10.8994756 104.237869,12.8573826 104.237869,15.3668128 C104.237869,17.876243 105.920014,19.8410441 108.374292,19.8410441 C110.82857,19.8410441 112.510715,17.883137 112.510715,15.3668128 C112.510715,12.8504886 110.86304,10.8994756 108.374292,10.8994756 Z" id="Shape" fill="#FFFFFF"></path>
                <path d="M124.140959,8.10049575 C125.884902,8.07761074 127.53865,8.87385993 128.608296,10.2514359 L128.608296,8.38315135 L131.676144,8.38315135 L131.676144,22.3573683 L128.594508,22.3573683 L128.594508,20.4890837 C127.524862,21.8666597 125.871114,22.6629089 124.127171,22.6400239 C120.294085,22.6400239 117.384801,19.3653554 117.384801,15.3668128 C117.384801,11.3682702 120.307874,8.10049575 124.140959,8.10049575 Z M124.699376,10.8994756 C122.210628,10.8994756 120.562953,12.8573826 120.562953,15.3668128 C120.562953,17.876243 122.245098,19.8410441 124.699376,19.8410441 C127.153654,19.8410441 128.8358,17.883137 128.8358,15.3668128 C128.8358,12.8504886 127.188124,10.8994756 124.699376,10.8994756 Z" id="Shape" fill="#FFFFFF"></path>
                <path d="M17.0282762,27.6175529 C16.7867416,27.6191881 16.5490066,27.557377 16.3388723,27.438275 C14.5395281,26.3972751 1.21335085,18.0416999 0.710086011,17.7866205 C0.327085525,17.6078693 0.0655547105,17.2417261 0.0203556257,16.821455 L0.0203556257,5.10158882 C0.010771673,4.66411159 0.227041623,4.25241699 0.592887349,4.01233066 L0.689403894,3.95717835 C1.97858918,3.15746983 6.29425755,0.523946959 6.97676741,0.144774818 C7.13336496,0.0518329133 7.31172855,0.00189110706 7.49382033,3.73034936e-13 C7.66451543,0.00193146647 7.83229884,0.0444681075 7.98329709,0.124092701 C7.98329709,0.124092701 14.0224752,4.06058894 14.9462764,4.41218492 C15.5944676,4.70998022 16.3012614,4.85840693 17.0144881,4.84650937 C17.8227181,4.86340141 18.6213,4.6685094 19.3308852,4.28119818 C20.2340043,3.80550949 26.0043149,0.144774818 26.0663612,0.144774818 C26.2118349,0.0569063301 26.3790076,0.0115308666 26.548944,0.0137880779 C26.7311769,0.0146800467 26.9097976,0.0646938408 27.0659969,0.158562896 C27.8519173,0.592887349 33.2016915,3.86755585 33.4291948,4.01233066 L33.4291948,4.01233066 C33.8054367,4.2393415 34.0335669,4.64840248 34.0290442,5.08780074 L34.0290442,16.8076669 C33.9867793,17.2289503 33.7243981,17.5962839 33.3395723,17.7728324 C32.8363075,18.0485939 19.5514944,26.4041691 17.7176801,27.4244869 C17.5088833,27.5484094 17.2710652,27.6149985 17.0282762,27.6175529 Z" id="Path" fill="url(#linearGradient-1)"></path>
                <path d="M16.9593358,27.6175529 L17.0282762,27.6175529 C17.2698107,27.6191881 17.5075458,27.557377 17.7176801,27.438275 C19.5170242,26.3972751 32.8363075,18.0416999 33.3395723,17.7866205 C33.7243981,17.610072 33.9867793,17.2427384 34.0290531,16.821455 L34.0290531,5.10158882 C34.0311726,4.9031797 33.9862819,4.70707839 33.8979895,4.52938358 L16.9593358,13.8294421 L16.9593358,27.6175529 Z" id="Path" fill="#F624A0" style="mix-blend-mode: multiply;"></path>
                <path d="M-3.51718654e-13,16.8007729 C0.0515572203,17.2287038 0.327496464,17.5966228 0.723874089,17.7659383 C1.22713893,18.0416999 14.5533162,26.3972751 16.3526604,27.4175929 C16.538261,27.5235514 16.745952,27.5849147 16.9593358,27.5968379 L16.9593358,13.80876 L0.0758344283,4.64658225 C0.027423083,4.78635214 0.00181765732,4.9330014 -3.51718654e-13,5.0809067 L-3.51718654e-13,16.8007729 Z" id="Path" fill="#F58000" opacity="0.41" style="mix-blend-mode: multiply;"></path>
            </g>
        </g>
    </g>
</svg>