<?xml version="1.0" encoding="UTF-8"?>
<svg xmlns="http://www.w3.org/2000/svg" xmlns:xlink="http://www.w3.org/1999/xlink" width="100px" height="34px" viewBox="0 0 101 34" version="1.1">
<defs>
<clipPath id="clip1">
  <path d="M 92 15 L 100.929688 15 L 100.929688 24 L 92 24 Z M 92 15 "/>
</clipPath>
<clipPath id="clip2">
  <path d="M 0 0 L 54 0 L 54 33.988281 L 0 33.988281 Z M 0 0 "/>
</clipPath>
</defs>
<g id="surface1">
<path style=" stroke:none;fill-rule:nonzero;fill:rgb(5.490196%,22.745098%,65.882353%);fill-opacity:1;" d="M 69.507812 15.707031 C 69.050781 15.46875 68.542969 15.347656 67.976562 15.347656 C 67.414062 15.347656 66.914062 15.46875 66.453125 15.714844 C 66.019531 15.945312 65.664062 16.257812 65.378906 16.65625 C 65.125 16.25 64.785156 15.933594 64.363281 15.707031 C 63.917969 15.464844 63.417969 15.34375 62.863281 15.34375 C 62.308594 15.34375 61.808594 15.46875 61.363281 15.714844 C 61.078125 15.871094 60.828125 16.070312 60.617188 16.3125 L 60.617188 15.507812 L 58.824219 15.507812 L 58.824219 23.359375 L 60.617188 23.359375 L 60.617188 18.683594 C 60.617188 18.332031 60.691406 18.035156 60.84375 17.789062 C 60.996094 17.546875 61.199219 17.359375 61.453125 17.226562 C 61.710938 17.097656 62 17.03125 62.324219 17.03125 C 62.804688 17.03125 63.203125 17.175781 63.53125 17.460938 C 63.855469 17.75 64.019531 18.15625 64.019531 18.679688 L 64.019531 23.359375 L 65.808594 23.359375 L 65.808594 18.679688 C 65.808594 18.332031 65.886719 18.035156 66.039062 17.789062 C 66.191406 17.542969 66.398438 17.355469 66.65625 17.226562 C 66.917969 17.09375 67.207031 17.027344 67.519531 17.027344 C 68 17.027344 68.402344 17.171875 68.726562 17.460938 C 69.050781 17.75 69.214844 18.15625 69.214844 18.679688 L 69.214844 23.355469 L 71.007812 23.355469 L 71.007812 18.289062 C 71.007812 17.675781 70.871094 17.152344 70.597656 16.71875 C 70.328125 16.28125 69.964844 15.945312 69.507812 15.703125 Z M 69.507812 15.707031 "/>
<path style=" stroke:none;fill-rule:nonzero;fill:rgb(5.490196%,22.745098%,65.882353%);fill-opacity:1;" d="M 78.007812 15.851562 C 77.449219 15.515625 76.804688 15.347656 76.078125 15.347656 C 75.351562 15.347656 74.648438 15.527344 74.035156 15.886719 C 73.421875 16.246094 72.933594 16.734375 72.578125 17.351562 C 72.21875 17.964844 72.039062 18.660156 72.039062 19.433594 C 72.039062 20.210938 72.222656 20.90625 72.585938 21.527344 C 72.949219 22.152344 73.441406 22.636719 74.066406 22.992188 C 74.691406 23.347656 75.394531 23.523438 76.175781 23.523438 C 76.785156 23.523438 77.359375 23.410156 77.902344 23.179688 C 78.445312 22.953125 78.90625 22.613281 79.285156 22.167969 L 78.148438 21.007812 C 77.90625 21.277344 77.617188 21.484375 77.277344 21.628906 C 76.933594 21.769531 76.5625 21.839844 76.160156 21.839844 C 75.695312 21.839844 75.28125 21.738281 74.921875 21.539062 C 74.566406 21.335938 74.289062 21.050781 74.09375 20.679688 C 74 20.5 73.929688 20.3125 73.878906 20.105469 L 79.710938 20.105469 C 79.742188 19.945312 79.769531 19.792969 79.785156 19.65625 C 79.800781 19.519531 79.808594 19.386719 79.808594 19.257812 C 79.808594 18.503906 79.648438 17.835938 79.328125 17.246094 C 79.007812 16.65625 78.566406 16.195312 78.007812 15.855469 Z M 73.882812 18.632812 C 73.929688 18.449219 73.992188 18.277344 74.074219 18.117188 C 74.257812 17.765625 74.519531 17.488281 74.855469 17.292969 C 75.195312 17.09375 75.589844 16.996094 76.046875 16.996094 C 76.503906 16.996094 76.847656 17.085938 77.144531 17.257812 C 77.445312 17.433594 77.675781 17.683594 77.839844 18.011719 C 77.929688 18.195312 77.996094 18.402344 78.042969 18.632812 Z M 73.882812 18.632812 "/>
<path style=" stroke:none;fill-rule:nonzero;fill:rgb(5.490196%,22.745098%,65.882353%);fill-opacity:1;" d="M 86.65625 16.382812 C 86.429688 16.125 86.160156 15.90625 85.847656 15.730469 C 85.386719 15.476562 84.859375 15.347656 84.261719 15.347656 C 83.554688 15.347656 82.917969 15.53125 82.347656 15.894531 C 81.777344 16.257812 81.328125 16.75 80.996094 17.367188 C 80.664062 17.980469 80.5 18.675781 80.5 19.449219 C 80.5 20.226562 80.664062 20.902344 80.996094 21.519531 C 81.328125 22.136719 81.777344 22.625 82.347656 22.984375 C 82.917969 23.34375 83.554688 23.523438 84.261719 23.523438 C 84.859375 23.523438 85.390625 23.394531 85.855469 23.140625 C 86.167969 22.96875 86.433594 22.753906 86.65625 22.5 L 86.65625 23.359375 L 88.445312 23.359375 L 88.445312 11.585938 L 86.65625 11.585938 Z M 86.492188 20.675781 C 86.308594 21.039062 86.050781 21.316406 85.71875 21.519531 C 85.386719 21.722656 85 21.824219 84.554688 21.824219 C 84.109375 21.824219 83.738281 21.722656 83.40625 21.519531 C 83.074219 21.316406 82.816406 21.039062 82.625 20.675781 C 82.433594 20.316406 82.339844 19.902344 82.339844 19.433594 C 82.339844 18.96875 82.433594 18.550781 82.625 18.191406 C 82.816406 17.832031 83.074219 17.550781 83.40625 17.351562 C 83.738281 17.148438 84.121094 17.046875 84.554688 17.046875 C 84.988281 17.046875 85.386719 17.148438 85.71875 17.351562 C 86.050781 17.550781 86.308594 17.832031 86.492188 18.191406 C 86.675781 18.550781 86.769531 18.96875 86.769531 19.433594 C 86.769531 19.902344 86.675781 20.316406 86.492188 20.675781 Z M 86.492188 20.675781 "/>
<path style=" stroke:none;fill-rule:nonzero;fill:rgb(5.490196%,22.745098%,65.882353%);fill-opacity:1;" d="M 90.941406 11.910156 C 90.636719 11.910156 90.386719 12.015625 90.183594 12.222656 C 89.984375 12.429688 89.882812 12.6875 89.882812 12.992188 C 89.882812 13.296875 89.984375 13.550781 90.183594 13.761719 C 90.386719 13.96875 90.636719 14.070312 90.941406 14.070312 C 91.246094 14.070312 91.511719 13.964844 91.707031 13.761719 C 91.902344 13.554688 92 13.296875 92 12.992188 C 92 12.6875 91.902344 12.429688 91.707031 12.222656 C 91.511719 12.015625 91.257812 11.910156 90.941406 11.910156 Z M 90.941406 11.910156 "/>
<path style=" stroke:none;fill-rule:nonzero;fill:rgb(5.490196%,22.745098%,65.882353%);fill-opacity:1;" d="M 91.839844 15.507812 L 90.046875 15.507812 L 90.046875 23.359375 L 91.839844 23.359375 Z M 91.839844 15.507812 "/>
<g clip-path="url(#clip1)" clip-rule="nonzero">
<path style=" stroke:none;fill-rule:nonzero;fill:rgb(5.490196%,22.745098%,65.882353%);fill-opacity:1;" d="M 99.140625 15.507812 L 99.140625 16.382812 C 98.914062 16.125 98.644531 15.90625 98.332031 15.730469 C 97.871094 15.476562 97.34375 15.347656 96.746094 15.347656 C 96.039062 15.347656 95.402344 15.53125 94.832031 15.894531 C 94.261719 16.257812 93.8125 16.75 93.480469 17.367188 C 93.148438 17.980469 92.984375 18.675781 92.984375 19.449219 C 92.984375 20.226562 93.148438 20.902344 93.480469 21.519531 C 93.8125 22.136719 94.261719 22.625 94.832031 22.984375 C 95.402344 23.34375 96.039062 23.523438 96.746094 23.523438 C 97.34375 23.523438 97.875 23.394531 98.339844 23.140625 C 98.652344 22.96875 98.917969 22.753906 99.140625 22.5 L 99.140625 23.359375 L 100.929688 23.359375 L 100.929688 15.511719 L 99.140625 15.511719 Z M 98.640625 21.152344 C 98.234375 21.597656 97.699219 21.820312 97.039062 21.820312 C 96.605469 21.820312 96.222656 21.71875 95.890625 21.519531 C 95.558594 21.316406 95.296875 21.035156 95.109375 20.675781 C 94.917969 20.316406 94.824219 19.902344 94.824219 19.433594 C 94.824219 18.964844 94.917969 18.550781 95.109375 18.191406 C 95.296875 17.832031 95.558594 17.550781 95.890625 17.351562 C 96.222656 17.148438 96.605469 17.046875 97.039062 17.046875 C 97.472656 17.046875 97.871094 17.148438 98.203125 17.351562 C 98.53125 17.550781 98.789062 17.832031 98.976562 18.191406 C 99.160156 18.550781 99.253906 18.964844 99.253906 19.433594 C 99.253906 20.132812 99.050781 20.703125 98.640625 21.152344 Z M 98.640625 21.152344 "/>
</g>
<g clip-path="url(#clip2)" clip-rule="nonzero">
<path style=" stroke:none;fill-rule:nonzero;fill:rgb(5.490196%,22.745098%,65.882353%);fill-opacity:1;" d="M 15.464844 18.527344 C 15.03125 17.796875 14.472656 17.210938 13.78125 16.761719 C 13.09375 16.3125 12.363281 15.96875 11.597656 15.722656 C 10.832031 15.480469 10.113281 15.269531 9.4375 15.089844 C 8.761719 14.910156 8.199219 14.703125 7.753906 14.472656 C 7.304688 14.242188 7.082031 13.9375 7.082031 13.550781 C 7.082031 13.21875 7.246094 12.949219 7.578125 12.742188 C 7.910156 12.539062 8.410156 12.4375 9.074219 12.4375 C 9.738281 12.4375 10.46875 12.582031 11.199219 12.878906 C 11.925781 13.171875 12.582031 13.667969 13.167969 14.359375 L 15.886719 11.566406 L 15.886719 19.539062 C 15.78125 19.164062 15.644531 18.828125 15.464844 18.527344 Z M 49.71875 8.726562 C 48.621094 8.125 47.34375 7.824219 45.890625 7.824219 C 44.433594 7.824219 43.234375 8.125 42.136719 8.726562 C 41.671875 8.980469 41.253906 9.28125 40.875 9.625 L 40.875 0 L 34.980469 0 L 34.980469 13.410156 C 34.542969 12.238281 33.273438 10.253906 31.335938 9.09375 C 29.933594 8.253906 28.417969 7.824219 26.683594 7.824219 C 25.433594 7.824219 24.285156 8.082031 23.238281 8.59375 C 22.703125 8.855469 22.21875 9.167969 21.78125 9.527344 L 21.78125 8.210938 L 15.886719 8.210938 L 15.886719 10.234375 C 15.164062 9.5 14.285156 8.921875 13.246094 8.496094 C 11.894531 7.949219 10.4375 7.671875 8.882812 7.671875 C 7.324219 7.671875 5.984375 7.925781 4.863281 8.441406 C 3.738281 8.953125 2.871094 9.652344 2.261719 10.535156 C 1.648438 11.417969 1.339844 12.464844 1.339844 13.667969 C 1.339844 14.871094 1.558594 15.757812 1.992188 16.472656 C 2.425781 17.191406 2.988281 17.757812 3.675781 18.164062 C 4.367188 18.574219 5.09375 18.902344 5.859375 19.144531 C 6.625 19.390625 7.359375 19.605469 8.058594 19.800781 C 8.761719 19.992188 9.328125 20.195312 9.765625 20.414062 C 10.199219 20.632812 10.414062 20.972656 10.414062 21.433594 C 10.414062 21.816406 10.230469 22.113281 9.859375 22.316406 C 9.488281 22.523438 8.984375 22.625 8.347656 22.625 C 7.328125 22.625 6.402344 22.4375 5.570312 22.066406 C 4.742188 21.695312 4.007812 21.175781 3.371094 20.507812 L 0 23.890625 C 0.664062 24.582031 1.441406 25.191406 2.335938 25.714844 C 3.226562 26.242188 4.210938 26.652344 5.285156 26.945312 C 6.355469 27.242188 7.441406 27.386719 8.539062 27.386719 C 10.859375 27.386719 12.703125 26.84375 14.070312 25.753906 C 14.980469 25.027344 15.585938 24.140625 15.886719 23.089844 L 15.886719 33.988281 L 21.707031 33.988281 L 21.707031 23.9375 C 22.824219 23.65625 23.886719 23.070312 24.632812 21.800781 C 22.613281 21.21875 21.292969 19.34375 21.425781 17.175781 C 21.523438 15.582031 22.558594 14.125 24.015625 13.449219 C 24.914062 13.03125 26.089844 12.886719 27.121094 13.21875 C 30.464844 14.289062 30.875 17.789062 29.902344 20.460938 C 29.652344 21.140625 29.261719 21.828125 28.757812 22.484375 C 27.332031 24.332031 25.023438 25.90625 22.621094 26.238281 C 23.429688 26.738281 25.117188 27.390625 27.226562 27.257812 C 30.070312 27.074219 31.460938 25.945312 32.300781 25.308594 C 33.585938 24.339844 34.6875 22.523438 34.976562 21.703125 L 34.976562 26.886719 L 40.875 26.886719 L 40.875 16.242188 C 40.875 15.601562 41.011719 15.035156 41.292969 14.550781 C 41.574219 14.0625 41.957031 13.683594 42.445312 13.417969 C 42.929688 13.148438 43.476562 13.011719 44.089844 13.011719 C 45.007812 13.011719 45.773438 13.3125 46.386719 13.917969 C 47 14.519531 47.304688 15.292969 47.304688 16.242188 L 47.304688 26.886719 L 53.199219 26.886719 L 53.199219 14.933594 C 53.199219 13.523438 52.894531 12.289062 52.28125 11.226562 C 51.667969 10.160156 50.8125 9.328125 49.714844 8.726562 Z M 49.71875 8.726562 "/>
</g>
</g>
</svg>
